# xmcd CD database file
#
# Track frame offsets:
#	150
#	23525
#	54525
#	78622
#	107207
#	126075
#	151922
#	180427
#	203572
#	228190
#
# Disc length: 3325 seconds
#
# Revision: 0
# Processed by: cddbd v1.5.1PL0 Copyright (c) Steve Scherf et al.
# Submitted via: CDex 1.51
#
DISCID=710cfb0a
DTITLE=Walle Larsson - Behind the Storm
DYEAR=1995
DGENRE=Jazz
TTITLE0=Behind the Storm
TTITLE1=Ninth Gear
TTITLE2=Long Distance Lovers 
TTITLE3=Pole Position
TTITLE4=I.O.U.
TTITLE5=One More Mile
TTITLE6=Home
TTITLE7=You Told Me So
TTITLE8=Strut Your Stuff
TTITLE9=What a Wonderful World
EXTD=YEAR: 1995
EXTT0=
EXTT1=
EXTT2=
EXTT3=
EXTT4=
EXTT5=
EXTT6=
EXTT7=
EXTT8=
EXTT9=
PLAYORDER=
